<?xml version="1.0" encoding="utf-8" ?>
<svg xmlns="http://www.w3.org/2000/svg" xmlns:xlink="http://www.w3.org/1999/xlink" width="1024" height="1024">
	<path fill="white" d="M0 0L1024 0L1024 1024L0 1024L0 0Z"/>
	<path fill="#A04CAF" d="M739.535 440.145C742.39 440.029 745.477 440.333 748.159 441.365C752.372 442.986 755.229 446.163 756.938 450.292C761.246 460.702 757.322 470.856 753.41 480.599C765.596 473.441 778.454 465.816 792.697 463.747C797.524 463.045 803.59 463.509 807.49 466.73Q808.003 467.151 808.47 467.623Q808.938 468.094 809.355 468.61Q809.772 469.126 810.135 469.682Q810.498 470.237 810.803 470.827Q811.108 471.417 811.351 472.034Q811.595 472.651 811.774 473.29Q811.954 473.929 812.068 474.583Q812.182 475.237 812.229 475.899C813.226 488.374 798.953 501.241 791.763 509.967C778.853 525.637 761.526 547.233 763.813 568.756Q763.887 569.434 763.995 570.108Q764.103 570.781 764.244 571.448Q764.386 572.115 764.56 572.775Q764.735 573.434 764.943 574.083Q765.151 574.733 765.391 575.371Q765.631 576.01 765.903 576.635Q766.175 577.261 766.478 577.872Q766.781 578.483 767.114 579.078Q767.448 579.673 767.81 580.25Q768.173 580.828 768.565 581.387Q768.956 581.945 769.375 582.483Q769.794 583.021 770.239 583.538Q770.685 584.054 771.156 584.548Q771.626 585.041 772.121 585.51Q772.617 585.98 773.134 586.423Q773.652 586.867 774.192 587.284C783.395 594.41 794.441 595.846 805.736 594.455C821.475 592.516 836.82 586.676 846.702 573.78C853.121 565.404 856.684 554.51 855.184 543.933C853.149 529.583 842.421 519.722 830.154 513.316C826.931 511.633 823.038 510.737 820.166 508.541C820.065 507.877 819.859 507.544 820.237 506.929C821.397 505.037 824.807 504.405 826.831 504.045Q827.701 503.884 828.577 503.767Q829.454 503.65 830.335 503.577Q831.217 503.504 832.101 503.475Q832.984 503.446 833.869 503.461Q834.753 503.476 835.636 503.535Q836.518 503.594 837.396 503.697Q838.275 503.801 839.147 503.947Q840.019 504.094 840.883 504.285Q841.747 504.475 842.6 504.708Q843.453 504.941 844.293 505.216Q845.134 505.492 845.959 505.809Q846.785 506.126 847.594 506.484Q848.402 506.842 849.192 507.239Q849.982 507.637 850.751 508.074Q851.521 508.511 852.267 508.985Q853.013 509.46 853.735 509.971C864.35 517.484 870.821 529.01 873.017 541.749Q873.292 543.351 873.487 544.964Q873.682 546.577 873.797 548.198Q873.912 549.819 873.947 551.444Q873.982 553.068 873.937 554.693Q873.891 556.317 873.766 557.937Q873.64 559.557 873.435 561.169Q873.229 562.781 872.944 564.381Q872.66 565.981 872.296 567.565Q871.933 569.149 871.491 570.713Q871.05 572.277 870.532 573.817Q870.014 575.357 869.421 576.87Q868.827 578.383 868.16 579.865Q867.492 581.346 866.752 582.793Q866.012 584.24 865.202 585.648Q864.391 587.057 863.512 588.424Q862.633 589.79 861.688 591.112C850.419 606.765 832.986 616.152 814.137 619.31C787.355 623.796 759.269 618.737 732.335 617.393Q686.438 614.991 640.482 615.639C629.744 615.819 618.925 615.84 608.207 616.543C580.199 618.379 551.128 620.224 523.829 627.101C516.185 629.026 508.679 631.282 501.477 634.531C499.489 635.428 489.24 641.375 488.132 641.443C487.504 641.482 486.766 640.818 486.392 640.388C485.21 639.03 485.028 636.967 485.018 635.258C484.974 627.62 487.722 619.613 493.277 614.222Q494.808 612.723 496.461 611.36Q498.114 609.997 499.877 608.78Q501.64 607.563 503.501 606.501Q505.362 605.439 507.306 604.54C519.314 598.926 533.468 596.556 546.514 594.535C595.092 587.013 645.688 588.347 694.647 590.716C713.227 591.615 731.898 593.155 750.486 593.551C742.806 582.022 739.236 570.19 738.778 556.307C738.006 532.885 747.564 514.137 763.317 497.448C754.68 501.717 746.639 503.54 737.045 504.221C733.628 509.183 731.195 515.13 728.205 520.388C716.754 540.524 701.927 563.789 680.049 573.516C670.833 577.613 659.691 578.418 650.213 574.687C640.253 570.765 634.677 563.15 630.563 553.626C623.03 563.234 615.198 572.725 603.551 577.394C596.23 580.329 586.946 580.959 579.646 577.655C573.947 575.075 569.929 570.114 567.797 564.31C560.685 544.946 573.165 518.308 581.329 500.723C566.829 517.315 550.297 542.94 545.439 564.715C544.516 568.851 544.584 581.544 543.455 583.476C541.952 584.489 540.578 584.859 538.777 584.898C532.915 585.023 526.74 583.094 522.455 579.028C516.027 572.929 514.623 563.78 514.487 555.363L510.075 561.014C502.674 570.408 492.812 580.153 480.289 581.414C472.977 582.151 466.833 579.954 461.167 575.47Q460.149 574.433 459.239 573.301Q458.329 572.168 457.535 570.952Q456.741 569.735 456.071 568.445Q455.401 567.156 454.862 565.807C446.782 545.737 458.678 520.398 466.578 502.07C451.39 517.925 440.537 538.254 433.182 558.804C432.002 562.1 430.817 565.59 430.168 569.038C429.38 573.221 430.445 582.052 427.679 585.12C423.986 586.32 419.186 585.861 415.375 585.275C410.378 584.506 405.83 582.157 402.901 577.949C395.769 567.701 398.613 550.323 400.546 538.9C394.807 541.002 389.01 542.196 383.042 543.425C374.488 557.504 363.676 576.308 346.509 580.612C338.589 582.597 329.61 580.683 322.713 576.435C315.016 571.693 309.956 564.181 307.9 555.43C302.722 533.398 311.055 507.654 322.613 488.925C326.387 482.809 332.637 474.799 340.057 473.289C344.884 472.307 348.457 474.223 352.318 476.787C355.112 474.042 357.978 471.637 361.559 469.96C368.02 466.933 375.264 466.844 381.911 469.323C388.398 471.741 393.985 476.66 396.845 483.004C403.358 497.449 394.455 515.555 389.283 529.177C394.324 527.567 400.311 525.567 404.109 521.743C407.835 517.992 410.258 507.638 412.406 502.513Q415.18 495.987 418.562 489.755C423.454 480.719 428.64 471.341 439.035 468.218C445.253 469.636 449.572 472.444 453.526 477.426Q451.016 480.331 448.65 483.356Q446.284 486.38 444.069 489.516Q441.853 492.652 439.793 495.892Q437.733 499.132 435.834 502.469Q433.934 505.806 432.2 509.231Q430.465 512.657 428.899 516.162Q427.334 519.668 425.941 523.246Q424.548 526.824 423.331 530.466C436.915 511.564 451.83 478.486 472.329 466.93C477.706 463.899 484.512 462.102 490.579 463.952C494.382 465.111 497.42 467.691 499.253 471.208C506.992 486.055 490.908 514.828 485.875 529.859C483.41 537.221 478.701 552.855 482.794 560.301C483.4 561.403 484.328 562.227 485.6 562.461C495.041 564.201 515.538 534.511 519.795 526.164C522.067 521.708 522.822 515.817 524.405 511.017C528.248 499.367 537.696 480.313 547.839 473.133C550.644 471.147 553.949 469.995 557.389 470.757C562.095 471.8 564.963 475.498 567.493 479.286C555.4 491.968 546.219 508.379 542.226 525.439C550.017 511.791 558.32 496.882 568.36 484.786C575.604 476.06 588.011 464.18 600.014 463.274C604.446 462.939 608.949 464.154 612.323 467.133C631.005 483.632 592.764 530.294 594.113 553.231C594.257 555.673 594.862 558.406 596.9 559.978C598.193 560.975 599.914 561.113 601.461 560.79C610.39 558.929 626.272 539.828 629.596 531.678C630.94 528.384 631.306 524.486 632.066 521.017C633.954 512.394 636.754 505.154 641.471 497.695C648.923 485.913 660.398 473.275 674.604 470.185C681.015 468.79 688.092 469.3 693.649 473.059C697.583 475.72 699.438 479.313 700.236 483.921C702.524 497.134 696.301 511.68 688.743 522.189C680.438 533.736 669.458 540.885 655.469 543.249C655.487 545.797 655.537 548.665 656.196 551.14C657.095 554.514 659.081 557.045 662.194 558.648C666.335 560.78 670.714 560.759 675.095 559.393C697.448 552.427 715.487 521.79 725.961 502.155C725.594 501.9 725.226 501.645 724.867 501.379C718.062 496.339 714.018 490.047 712.785 481.651C711.281 471.404 714.119 459.886 720.34 451.589C725.186 445.126 731.535 441.347 739.535 440.145Z"/>
	<path fill="white" d="M345.786 496.37C346.022 498.834 345.389 501.665 345.14 504.146C344.446 511.042 345.043 518.66 348.029 525.009C351.659 532.729 357.96 537.763 365.855 540.552C362.306 549.218 357.365 556.91 349.889 562.618Q349.064 563.104 348.215 563.547C345.643 564.874 342.71 565.917 339.849 564.884C336.715 563.753 334.528 560.372 333.317 557.431C326.61 541.152 339.05 511.93 345.786 496.37Z"/>
	<path fill="white" d="M686.807 488.835C687.45 489.373 687.724 489.773 688.075 490.56C689.848 494.531 687.932 500.184 686.27 503.945C681.136 515.56 671.006 526.418 659.086 531.017L657.935 530.805C657.895 530.267 657.852 530.091 657.981 529.495C660.353 518.521 677.603 496.08 686.807 488.835Z"/>
	<path fill="white" d="M380.039 485.414C380.662 485.859 380.637 485.701 380.901 486.41C383.676 493.868 375.28 519.291 372.273 527.671C370.911 526.978 369.657 526.127 368.38 525.292C367.402 524.302 366.499 523.296 365.733 522.129C363.092 518.102 362.854 513.201 363.88 508.603C365.922 499.446 372.157 490.446 380.039 485.414Z"/>
	<path fill="white" d="M740.819 458.286C741.956 458.252 742.355 458.488 743.282 459.126C744.751 461.4 744.414 463.764 743.994 466.33C742.988 472.483 739.969 482.151 734.793 485.911C734.198 485.367 733.607 484.822 733.087 484.204C731.195 481.957 730.806 478.674 731.083 475.847C731.74 469.145 735.782 462.615 740.819 458.286Z"/>
	<path fill="#A04CAF" d="M313.31 376.692C319 375.997 325.646 376.816 330.492 379.998C336.086 383.671 338.989 390.005 340.268 396.374C343.803 413.982 335.512 434.526 325.832 448.883C318.751 459.385 307.577 469.692 294.715 472.043C289.289 473.035 282.045 472.841 277.497 469.396C276.103 468.34 274.99 466.81 275.003 464.987C275.015 463.316 275.993 461.634 277.113 460.453C280.322 457.068 284.645 454.211 288.217 451.13C295.705 444.671 303.012 437.707 309.536 430.271C316.373 422.48 326.225 409.549 325.125 398.438C324.948 396.643 324.312 394.806 322.703 393.801C321.303 392.926 319.492 392.884 317.915 393.172C304.901 395.547 289.766 412.701 282.617 422.999C264.44 449.183 260.636 476.639 268.257 507.397C271.227 519.384 275.377 531.067 277.527 543.252C282.059 568.931 278.464 595.838 263.163 617.473C252.578 632.439 236.028 644.066 217.709 647.024C202.654 649.455 186.237 646.563 173.839 637.43C161.013 627.982 153.936 614.367 151.559 598.834C150.51 586.873 151.643 575.544 156.341 564.404C162.217 550.471 173.701 538.064 187.89 532.457C197.714 528.575 208.854 527.903 218.672 532.21Q219.583 532.618 220.473 533.07Q221.363 533.522 222.229 534.018Q223.096 534.513 223.937 535.051Q224.778 535.588 225.592 536.166Q226.406 536.744 227.19 537.361Q227.975 537.979 228.728 538.634Q229.481 539.289 230.201 539.98Q230.921 540.672 231.606 541.397Q232.291 542.123 232.94 542.882Q233.589 543.641 234.199 544.43Q234.81 545.22 235.381 546.038Q235.952 546.857 236.482 547.703Q237.012 548.548 237.501 549.419Q237.989 550.29 238.433 551.183Q238.878 552.077 239.278 552.992Q239.678 553.906 240.033 554.839C243.359 563.347 244.77 573.86 240.697 582.345C240.009 583.78 239.749 584.39 238.235 584.937C234.956 580.012 239.853 563.871 227.543 553.431C222.753 549.368 216.118 548.002 209.974 548.695C199.912 549.83 190.434 557.465 184.295 565.153C176.273 575.201 171.208 587.792 172.802 600.78C173.829 609.141 177.892 617.009 184.588 622.214C191.224 627.373 199.265 629.294 207.544 628.251C220.421 626.629 231.381 618.48 239.182 608.442C268.01 571.35 242.398 531.294 237.812 491.741C234.447 462.718 241.959 432.039 260.213 409.038C273.163 392.72 292.273 379.202 313.31 376.692Z"/>
</svg>
